<svg width="3293" height="751" viewBox="0 0 3293 751" fill="none" xmlns="http://www.w3.org/2000/svg">
<path d="M941.852 618V259.664H1020.41V618H941.852Z" fill="white"/>
<path d="M1096.31 618.002V259.666H1172.85L1174.86 333.49H1179.59C1192.68 307.73 1212.43 288.101 1238.85 274.563C1265.27 261.024 1293.83 254.234 1324.53 254.234C1347.57 254.234 1368.56 257.197 1387.53 263.041C1406.5 268.925 1422.83 278.266 1436.62 291.146C1450.4 304.026 1461.1 321.186 1468.8 342.625C1476.45 364.064 1480.32 390.4 1480.32 421.551V618.002H1401.76V435.089C1401.76 408.012 1398.14 385.544 1390.94 367.685C1383.7 349.867 1372.55 336.658 1357.4 328.058C1342.26 319.499 1322.96 315.178 1299.51 315.178C1274.65 315.178 1252.88 320.486 1234.12 331.103C1215.35 341.72 1200.83 356.287 1190.42 374.804C1180.01 393.322 1174.82 415.214 1174.82 440.521V618.002H1096.27H1096.31Z" fill="white"/>
<path d="M1714.06 626.137C1686.99 626.137 1662.46 621.857 1640.57 613.257C1618.68 604.698 1599.71 592.147 1583.66 575.646C1567.61 559.186 1555.31 539.392 1546.75 516.39C1538.15 493.345 1533.87 467.832 1533.87 439.85C1533.87 401.91 1541.44 369.072 1556.54 341.296C1571.68 313.519 1592.79 291.957 1619.87 276.608C1646.95 261.259 1678.55 253.564 1714.72 253.564C1736.86 253.564 1757.27 256.609 1776.04 262.699C1794.76 268.789 1810.93 277.595 1824.47 289.117C1838.01 300.639 1848.62 314.301 1856.32 330.103H1860.39V124.188H1938.29V617.989H1863.11L1861.75 549.557H1857.68C1846.86 572.148 1829.24 590.542 1804.84 604.78C1780.44 619.018 1750.19 626.137 1714.06 626.137ZM1736.41 565.152C1761.22 565.152 1783.03 560.42 1801.8 550.915C1820.52 541.45 1834.88 528.117 1844.8 510.958C1854.71 493.798 1859.69 474.169 1859.69 452.031V427.629C1859.69 405.49 1854.71 385.985 1844.8 369.031C1834.84 352.077 1820.64 338.909 1802.12 329.403C1783.61 319.939 1761.72 315.165 1736.41 315.165C1711.1 315.165 1688.55 320.144 1670.03 330.062C1651.52 340.02 1637.4 354.217 1627.69 372.734C1617.98 391.252 1613.12 413.596 1613.12 439.809C1613.12 466.022 1617.98 487.214 1627.69 506.184C1637.4 525.155 1651.52 539.722 1670.03 549.886C1688.55 560.05 1710.69 565.111 1736.41 565.111V565.152Z" fill="white"/>
<path d="M2163.2 624.131C2132.5 624.131 2105.38 618.699 2081.93 607.877C2058.43 597.054 2040.16 579.442 2027.07 555.04C2013.99 530.638 2007.45 498.129 2007.45 457.514V259.705H2085.34V443.276C2085.34 469.941 2089.09 492.039 2096.54 509.651C2103.98 527.263 2115.26 540.596 2130.4 549.608C2145.55 558.661 2164.84 563.146 2188.3 563.146C2213.11 563.146 2234.8 557.838 2253.32 547.221C2271.84 536.605 2286.4 521.832 2297.02 502.861C2307.64 483.891 2312.94 461.999 2312.94 437.145V259.664H2390.84V618H2315.66L2312.94 544.835H2308.21C2295.58 569.689 2276.16 589.112 2249.94 603.103C2223.73 617.094 2194.84 624.09 2163.24 624.09L2163.2 624.131Z" fill="white"/>
<path d="M2648.17 624.113C2617.02 624.113 2588.92 619.834 2563.86 611.233C2538.8 602.674 2517.44 590.247 2499.83 573.992C2482.22 557.738 2468.76 538.192 2459.54 515.395C2450.28 492.597 2445.63 466.961 2445.63 438.526C2445.63 410.091 2450.61 384.578 2460.53 361.987C2470.45 339.395 2484.48 320.096 2502.54 304.089C2520.61 288.081 2542.38 275.736 2567.93 267.177C2593.44 258.618 2621.55 254.297 2652.25 254.297C2688.83 254.297 2721.01 259.729 2748.79 270.551C2776.56 281.374 2798.78 296.517 2815.49 315.94C2832.2 335.363 2841.91 358.16 2844.62 384.372H2766.73C2762.65 369.476 2755.21 356.925 2744.38 346.761C2733.56 336.597 2720.35 328.943 2704.76 323.717C2689.16 318.532 2671.67 315.94 2652.25 315.94C2632.82 315.94 2614.55 318.779 2598.75 324.417C2582.95 330.054 2569.49 338.408 2558.47 349.477C2547.44 360.547 2538.92 373.509 2533.08 388.446C2527.19 403.343 2524.27 420.297 2524.27 439.267C2524.27 464.574 2529.33 486.466 2539.5 504.984C2549.66 523.501 2564.23 537.739 2583.2 547.656C2602.17 557.615 2624.76 562.553 2650.93 562.553C2670.81 562.553 2688.87 559.508 2705.13 553.417C2721.38 547.327 2735.04 538.727 2746.11 527.657C2757.18 516.588 2764.51 503.831 2768.13 489.388H2847.38C2844.21 516.464 2833.39 540.208 2814.87 560.495C2796.36 580.823 2772.65 596.501 2743.77 607.571C2714.88 618.64 2683.03 624.154 2648.26 624.154L2648.17 624.113Z" fill="white"/>
<path d="M3093.23 624.133C3050.77 624.133 3014.1 616.479 2983.16 601.089C2952.21 585.74 2928.38 564.424 2911.68 537.059C2894.97 509.736 2886.62 477.556 2886.62 440.521C2886.62 403.486 2894.97 369.043 2911.68 341.267C2928.38 313.491 2952.33 292.051 2983.48 276.908C3014.64 261.765 3051.01 254.234 3092.53 254.234C3137.22 254.234 3174.96 262.464 3205.65 278.966C3236.35 295.467 3259.27 318.593 3274.42 348.386C3289.56 378.179 3295.32 413.856 3291.7 455.417H2967.89C2968.79 478.914 2974.56 498.995 2985.17 515.702C2995.79 532.409 3010.68 545.166 3029.86 553.972C3049.04 562.778 3071.3 567.181 3096.57 567.181C3125 567.181 3149.85 561.667 3171.09 550.598C3192.32 539.528 3205.61 524.961 3211.05 506.896H3288.28C3283.76 530.846 3272.61 551.585 3254.75 569.198C3236.89 586.81 3214.09 600.348 3186.31 609.854C3158.54 619.318 3127.47 624.092 3093.19 624.092L3093.23 624.133ZM2966.53 414.144L2962.46 407.354H3217.83L3212.4 413.444C3212.86 391.306 3208.12 372.459 3198.17 356.863C3188.21 341.267 3174.34 329.416 3156.52 321.309C3138.66 313.161 3117.35 309.129 3092.49 309.129C3067.64 309.129 3045.99 313.408 3027.47 322.009C3008.96 330.609 2994.64 342.789 2984.47 358.591C2974.31 374.393 2968.3 392.91 2966.53 414.144Z" fill="white"/>
<path d="M748.573 454.586C748.573 487.835 748.326 521.085 748.737 554.334C748.82 561.906 746.392 563.593 739.314 563.51C712.525 563.14 685.778 563.634 658.989 563.222C652.158 563.099 650.677 565.321 650.718 571.699C650.924 627.293 650.718 682.928 651.006 738.522C651.047 746.67 649.319 749.55 640.512 749.55C551.093 749.468 461.633 751.155 372.255 749.838C250.45 748.028 151.073 698.442 76.5086 602.027C17.705 525.981 -7.27311 438.414 1.82107 343.234C14.5776 210.031 81.0763 109.789 198.272 45.0597C273.412 3.58034 354.889 -9.3408 439.041 6.62546C571.545 31.727 665.367 107.731 719.85 231.017C740.014 276.653 748.614 325.169 748.573 375.166C748.573 401.626 748.573 428.126 748.573 454.586ZM346.577 441.459C346.042 450.636 345.589 457.919 345.219 465.162C343.367 498.987 338.676 532.36 329.993 565.115C324.109 587.336 316.002 608.652 306.373 629.474C302.67 637.539 304.439 641.613 312.258 643.177C321.475 644.988 330.734 646.757 339.993 648.197C349.087 649.596 358.222 644.864 361.885 636.84C378.962 599.805 389.497 560.918 394.97 520.508C398.097 497.464 399.414 474.297 400.731 451.129C400.854 449.319 399.99 446.562 402.747 445.986C404.64 445.574 405.751 447.508 406.903 448.743C432.828 477.301 456.942 507.258 476.323 540.713C487.804 560.547 497.598 581.205 505.087 602.932C508.215 612.026 512.33 613.425 520.189 608.241C527.802 603.22 535.292 598.076 542.657 592.727C551.093 586.596 553.48 578.612 550.023 568.778C534.016 522.977 508.379 482.815 477.681 445.698C466.365 432.036 454.514 418.826 441.757 404.095C481.426 405.082 518.914 409.115 555.826 418.127C581.009 424.258 605.288 432.859 628.661 444.134C636.974 448.167 640.183 446.274 641.994 436.974C643.64 428.62 645.245 420.267 646.438 411.831C648.29 398.786 644.874 392.696 633.147 387.305C586.935 366.113 538.049 355.661 487.557 351.916C472.743 350.805 457.888 349.941 442.086 348.871C443.774 346.896 444.638 345.744 445.667 344.756C491.59 302.454 541.217 265.913 600.885 244.967C611.296 241.305 612.489 237.437 606.193 228.054C602.243 222.211 598.169 216.45 594.136 210.689C584.919 197.48 578.417 195.546 563.479 201.142C530.271 213.57 499.697 230.811 471.056 251.592C449.411 267.312 429.001 284.595 409.454 302.865C407.891 304.306 406.492 307.022 403.693 305.787C402.171 305.129 402.747 303.236 402.829 301.837C404.558 271.303 407.15 240.893 413.281 210.895C419.742 179.415 429.33 149.005 443.568 120.118C446.16 114.809 445.708 109.83 439.124 108.39C428.507 106.085 417.808 104.028 406.985 102.834C397.974 101.847 390.978 106.044 387.192 114.521C383.612 122.587 379.991 130.611 376.863 138.841C358.634 186.904 351.186 236.943 349.211 288.01C348.964 293.977 349.128 300.026 346.988 306.363C345.466 305.252 344.437 304.717 343.655 303.894C301.394 257.929 264.729 208.343 243.825 148.635C240.163 138.224 236.295 137.113 226.83 143.491C220.493 147.77 214.238 152.132 207.983 156.494C197.243 164.025 194.898 172.049 199.506 184.764C218.394 236.984 249.627 281.467 286.004 322.741C292.794 330.436 299.625 338.09 307.114 346.567C304.439 346.896 303.575 347.143 302.711 347.102C239.422 344.797 177.697 335.292 120.045 307.145C111.733 303.071 108.441 304.717 106.466 314.017C104.738 322.041 103.709 330.23 102.186 338.296C99.7996 351.052 103.956 358.747 115.93 364.22C162.759 385.618 212.222 395.906 263.289 399.486C276.951 400.432 290.613 401.379 304.11 402.325C304.645 405 302.876 405.988 301.682 407.058C287.321 420.061 272.671 432.776 257.281 444.586C223.044 470.84 186.256 492.444 145.312 506.559C137.822 509.151 136.423 513.513 140.703 520.179C145.106 527.093 149.962 533.8 154.694 540.507C163.335 552.729 170.742 554.869 184.98 549.643C220.246 536.68 252.261 517.875 282.383 495.613C304.357 479.358 324.685 461.129 346.495 441.418L346.577 441.459Z" fill="#FF5203"/>
<path d="M346.571 441.476C324.761 461.187 304.433 479.417 282.459 495.671C252.337 517.933 220.364 536.739 185.057 549.701C170.778 554.927 163.412 552.787 154.77 540.566C150.038 533.858 145.223 527.151 140.779 520.238C136.541 513.571 137.94 509.209 145.388 506.617C186.332 492.461 223.162 470.899 257.358 444.645C272.748 432.835 287.397 420.161 301.759 407.116C302.952 406.046 304.721 405.058 304.186 402.384C290.648 401.437 277.027 400.491 263.365 399.544C212.298 395.964 162.836 385.677 116.007 364.279C104.032 358.806 99.8759 351.111 102.263 338.354C103.785 330.289 104.855 322.1 106.542 314.075C108.517 304.776 111.809 303.13 120.122 307.203C177.773 335.35 239.498 344.856 302.787 347.16C303.651 347.16 304.516 346.954 307.19 346.625C299.701 338.189 292.87 330.494 286.08 322.799C249.704 281.526 218.512 237.042 199.583 184.823C194.974 172.107 197.319 164.083 208.06 156.553C214.314 152.191 220.569 147.829 226.906 143.549C236.33 137.171 240.239 138.282 243.901 148.693C264.806 208.402 301.47 257.988 343.732 303.953C344.472 304.776 345.542 305.31 347.065 306.422C349.205 300.084 349.04 293.994 349.287 288.069C351.303 237.001 358.71 186.922 376.94 138.899C380.067 130.669 383.688 122.604 387.269 114.58C391.054 106.061 398.05 101.905 407.062 102.893C417.843 104.045 428.583 106.103 439.2 108.448C445.784 109.888 446.237 114.909 443.644 120.176C429.447 149.063 419.818 179.473 413.358 210.953C407.226 240.952 404.634 271.362 402.906 301.895C402.823 303.294 402.247 305.187 403.77 305.845C406.568 307.121 407.967 304.405 409.531 302.924C429.077 284.653 449.488 267.411 471.133 251.651C499.773 230.87 530.348 213.628 563.556 201.201C578.534 195.604 584.995 197.579 594.213 210.747C598.245 216.508 602.319 222.269 606.27 228.113C612.566 237.454 611.372 241.363 600.961 245.026C541.293 265.971 491.666 302.512 445.743 344.815C444.714 345.761 443.85 346.954 442.163 348.93C457.964 350 472.82 350.864 487.634 351.975C538.125 355.719 586.97 366.172 633.223 387.364C644.951 392.755 648.325 398.845 646.514 411.889C645.321 420.325 643.716 428.679 642.07 437.032C640.218 446.332 637.05 448.225 628.737 444.192C605.364 432.917 581.086 424.358 555.902 418.185C518.99 409.173 481.461 405.141 441.834 404.153C454.59 418.885 466.441 432.094 477.758 445.756C508.497 482.873 534.092 523.036 550.1 568.836C553.556 578.671 551.17 586.654 542.734 592.785C535.368 598.135 527.879 603.32 520.266 608.299C512.406 613.484 508.291 612.085 505.164 602.991C497.716 581.263 487.922 560.606 476.4 540.772C457.018 507.275 432.863 477.359 406.979 448.801C405.827 447.525 404.716 445.632 402.823 446.044C400.025 446.62 400.889 449.377 400.807 451.188C399.49 474.355 398.173 497.523 395.046 520.567C389.532 560.976 378.997 599.863 361.961 636.898C358.258 644.923 349.163 649.655 340.069 648.256C330.769 646.816 321.552 645.046 312.334 643.235C304.557 641.713 302.746 637.639 306.45 629.532C316.038 608.71 324.185 587.354 330.07 565.174C338.753 532.377 343.485 499.004 345.295 465.22C345.707 457.936 346.118 450.694 346.653 441.517L346.571 441.476Z" fill="#F9F7F3"/>
</svg>
